<mxfile host="app.diagrams.net" modified="2024-05-25T02:07:55.648Z" agent="Mozilla/5.0 (Windows NT 10.0; Win64; x64) AppleWebKit/537.36 (KHTML, like Gecko) Chrome/123.0.0.0 Safari/537.36 OPR/109.0.0.0" version="24.4.8" etag="i1BFFgVoJuhDQO4K1jwo" type="github">
  <diagram name="PÃ¡gina-1" id="UYM_8K6trfW_yJvHXX-R">
    <mxGraphModel>
      <root>
        <mxCell id="0" />
        <mxCell id="1" parent="0" />
      </root>
    </mxGraphModel>
  </diagram>
</mxfile>
